<?xml version="1.0" encoding="UTF-8"?>
<svg version="1.1" xmlns="http://www.w3.org/2000/svg" width="4096" height="4096">
<path d="M0 0 C2.25527692 -0.00124392 4.51055364 -0.00292535 6.76582995 -0.00500236 C12.97775494 -0.00945092 19.18966502 -0.00767457 25.40159041 -0.00490058 C31.4789298 -0.00317681 37.55626533 -0.00618498 43.63360398 -0.00903876 C56.26384317 -0.01480008 68.8940788 -0.01581352 81.52431903 -0.01426902 C94.39295798 -0.01271445 107.26159411 -0.01335014 120.13023277 -0.01661023 C120.94627476 -0.01681553 121.76231674 -0.01702083 122.60308727 -0.01723235 C126.7697335 -0.01828988 130.93637971 -0.01938136 135.10302592 -0.0204838 C165.53907817 -0.02845813 195.97512938 -0.03145406 226.41118258 -0.03192973 C257.26525891 -0.03242421 288.11933393 -0.03506905 318.97340983 -0.04033732 C320.94021639 -0.04067086 322.90702294 -0.04100433 324.8738295 -0.04133773 C332.80396378 -0.04268584 340.73409807 -0.04404914 348.66423235 -0.04542983 C435.89938211 -0.06059661 523.13453154 -0.06737272 610.36968241 -0.0718518 C611.47312615 -0.07190849 612.57656989 -0.07196518 613.71345132 -0.07202359 C619.29492937 -0.07231011 624.87640742 -0.07259514 630.45788546 -0.0728777 C677.22302326 -0.07525295 723.98816091 -0.07896265 770.7532986 -0.0829148 C793.14987931 -0.08480739 815.54646002 -0.0866359 837.94304073 -0.088449 C839.05692881 -0.08853919 840.1708169 -0.08862938 841.31845916 -0.0887223 C894.92876891 -0.09305856 948.53907868 -0.09698688 1002.14938849 -0.10044932 C1003.29299398 -0.1005232 1004.43659946 -0.10059707 1005.61485966 -0.10067318 C1078.4968068 -0.10536819 1151.3787539 -0.10819118 1224.26070117 -0.1098361 C1230.23612295 -0.10997168 1236.21154474 -0.11011071 1242.18696653 -0.11024964 C1251.76700296 -0.11047212 1261.3470394 -0.11069349 1270.92707583 -0.11091352 C1272.11420429 -0.11094079 1273.30133276 -0.11096806 1274.52443481 -0.11099616 C1276.92371577 -0.11105127 1279.32299673 -0.11110639 1281.72227769 -0.11116149 C1298.55252086 -0.11154811 1315.38276402 -0.11193605 1332.21300718 -0.11233062 C1338.23521177 -0.11247173 1344.25741636 -0.11261181 1350.27962095 -0.11274952 C1464.011654 -0.11535356 1577.74368568 -0.12068245 1691.47571772 -0.13663173 C1692.67288387 -0.13679952 1693.87005003 -0.13696731 1695.10349394 -0.13714019 C1732.50808615 -0.14239087 1769.91267831 -0.14796523 1807.31727046 -0.1535995 C1845.69725402 -0.15938053 1884.07723759 -0.16511111 1922.45722121 -0.17055583 C1923.63898008 -0.17072364 1924.82073895 -0.17089144 1926.03830869 -0.17106434 C2000.0580419 -0.18155857 2074.07777472 -0.18841942 2148.09750861 -0.19142222 C2149.81254163 -0.19149244 2149.81254163 -0.19149244 2151.56222179 -0.19156408 C2201.77760606 -0.19361481 2251.99299031 -0.19485883 2302.20837462 -0.19521013 C2322.41071811 -0.1953534 2342.61306159 -0.19559206 2362.81540508 -0.19587419 C2366.16502893 -0.19591972 2369.51465278 -0.19596137 2372.86427664 -0.1960023 C2424.08924499 -0.19664827 2475.31421178 -0.19960331 2526.53917927 -0.20946288 C2528.19570374 -0.20978144 2528.19570374 -0.20978144 2529.88569335 -0.21010643 C2547.65005992 -0.21353513 2565.41442645 -0.21714812 2583.17879297 -0.22078283 C2633.62144798 -0.23109871 2684.06410107 -0.23987677 2734.50675732 -0.23793817 C2735.53077318 -0.23789943 2736.55478904 -0.23786069 2737.60983568 -0.23782078 C2759.95329267 -0.23694411 2782.29674952 -0.23523184 2804.64020639 -0.23270115 C2813.55211648 -0.23170443 2822.46402658 -0.23081776 2831.37593669 -0.22996593 C2832.34806165 -0.22987004 2833.32018661 -0.22977415 2834.3217699 -0.22967536 C2865.1268156 -0.22668908 2895.93185016 -0.23291004 2926.73689357 -0.24448479 C2957.08474923 -0.25584923 2987.43258999 -0.25806668 3017.78044627 -0.24707929 C3021.94386302 -0.24557329 3026.1072798 -0.24417195 3030.2706966 -0.24283347 C3031.08571716 -0.24256742 3031.90073773 -0.24230137 3032.74045588 -0.24202727 C3045.55222454 -0.23811725 3058.36396755 -0.244172 3071.17573176 -0.25457332 C3083.7341913 -0.26456284 3096.29261254 -0.26377479 3108.85107066 -0.25172237 C3115.5270895 -0.24560257 3122.20300538 -0.24433078 3128.87902393 -0.25640723 C3155.05194663 -0.30070205 3180.93050116 -0.23457195 3206.92298335 3.1276505 C3208.3097886 3.30315345 3208.3097886 3.30315345 3209.72461011 3.48220192 C3214.64709481 4.11346376 3219.53179078 4.84790194 3224.42298335 5.6901505 C3225.14259242 5.8125913 3225.86220149 5.93503209 3226.60361689 6.06118321 C3267.17555934 13.03432391 3306.4237013 25.17322167 3343.92298335 42.1276505 C3344.83644526 42.53692784 3345.74990718 42.94620519 3346.69104975 43.36788487 C3360.91622431 49.7843246 3374.45466045 57.26150914 3387.92298335 65.1276505 C3388.80937495 65.64118077 3389.69576655 66.15471105 3390.6090185 66.68380284 C3402.49264523 73.58318576 3413.85223304 80.98867992 3424.92298335 89.1276505 C3425.47389643 89.5308048 3426.02480952 89.93395909 3426.59241694 90.34933019 C3430.06863307 92.9002226 3433.50327227 95.50163894 3436.92298335 98.1276505 C3437.45955561 98.53805577 3437.99612788 98.94846105 3438.54895991 99.37130284 C3456.96678655 113.49517509 3473.98557864 129.13600227 3490.42298335 145.5026505 C3491.16459712 146.23959142 3491.90621089 146.97653234 3492.6702978 147.7358048 C3497.29225547 152.37135185 3501.66314098 157.15912762 3505.92298335 162.1276505 C3506.87250941 163.21055481 3507.82298 164.2926319 3508.77454585 165.37374425 C3516.57554304 174.31699554 3523.84088621 183.60779885 3530.92298335 193.1276505 C3531.46600093 193.85500401 3532.0090185 194.58235753 3532.56849116 195.33175206 C3581.56565487 261.21445051 3611.99545491 339.68198193 3622.17298335 421.0026505 C3622.29774546 421.9994785 3622.29774546 421.9994785 3622.42502803 423.01644444 C3622.96495855 427.38284501 3623.49270774 431.74906251 3623.92298335 436.1276505 C3624.00662459 436.93837856 3624.09026583 437.74910661 3624.17644165 438.58440219 C3625.16009136 449.45062499 3625.06241372 460.30307088 3625.05063385 471.20466715 C3625.05187777 473.45994407 3625.0535592 475.71522079 3625.05563621 477.9704971 C3625.06008476 484.1824221 3625.05830842 490.39433217 3625.05553442 496.60625756 C3625.05381066 502.68359695 3625.05681883 508.76093248 3625.05967261 514.83827114 C3625.06543393 527.46851032 3625.06644736 540.09874595 3625.06490287 552.72898618 C3625.0633483 565.59762513 3625.06398399 578.46626126 3625.06724408 591.33489992 C3625.06755203 592.5589629 3625.06755203 592.5589629 3625.0678662 593.80775442 C3625.06892373 597.97440065 3625.07001521 602.14104686 3625.07111765 606.30769307 C3625.07909198 636.74374532 3625.08208791 667.17979653 3625.08256358 697.61584973 C3625.08305805 728.46992606 3625.0857029 759.32400109 3625.09097117 790.17807698 C3625.09130471 792.14488354 3625.09163818 794.11169009 3625.09197158 796.07849665 C3625.09331969 804.00863094 3625.09468298 811.93876522 3625.09606368 819.8688995 C3625.11123046 907.10404926 3625.11800657 994.33919869 3625.12248565 1081.57434956 C3625.12254234 1082.6777933 3625.12259903 1083.78123704 3625.12265743 1084.91811847 C3625.12294396 1090.49959652 3625.12322899 1096.08107457 3625.12351155 1101.66255262 C3625.12588679 1148.42769041 3625.1295965 1195.19282806 3625.13354865 1241.95796575 C3625.13544124 1264.35454646 3625.13726974 1286.75112717 3625.13908285 1309.14770788 C3625.13917304 1310.26159596 3625.13926323 1311.37548405 3625.13935615 1312.52312631 C3625.1436924 1366.13343606 3625.14762073 1419.74374583 3625.15108317 1473.35405564 C3625.15115704 1474.49766113 3625.15123092 1475.64126661 3625.15130703 1476.81952681 C3625.15600204 1549.70147395 3625.15882503 1622.58342105 3625.16046995 1695.46536832 C3625.16060553 1701.4407901 3625.16074456 1707.41621189 3625.16088349 1713.39163368 C3625.16110597 1722.97167011 3625.16132733 1732.55170655 3625.16154737 1742.13174298 C3625.16157464 1743.31887145 3625.16160191 1744.50599991 3625.16163001 1745.72910196 C3625.16168512 1748.12838292 3625.16174023 1750.52766388 3625.16179534 1752.92694485 C3625.16218196 1769.75718801 3625.1625699 1786.58743117 3625.16296447 1803.41767433 C3625.16310558 1809.43987892 3625.16324565 1815.46208351 3625.16338337 1821.48428811 C3625.16598741 1935.21632115 3625.17131629 2048.94835283 3625.18726557 2162.68038487 C3625.18743337 2163.87755103 3625.18760116 2165.07471718 3625.18777404 2166.30816109 C3625.19302472 2203.7127533 3625.19859908 2241.11734546 3625.20423335 2278.52193761 C3625.21001438 2316.90192117 3625.21574496 2355.28190475 3625.22118968 2393.66188836 C3625.22135749 2394.84364723 3625.22152529 2396.0254061 3625.22169819 2397.24297584 C3625.23219242 2471.26270905 3625.23905327 2545.28244187 3625.24205607 2619.30217576 C3625.24210288 2620.44553111 3625.24214969 2621.58888646 3625.24219792 2622.76688894 C3625.24424865 2672.98227321 3625.24549268 2723.19765746 3625.24584398 2773.41304177 C3625.24598725 2793.61538526 3625.24622591 2813.81772875 3625.24650804 2834.02007223 C3625.24655357 2837.36969608 3625.24659522 2840.71931994 3625.24663615 2844.06894379 C3625.24728211 2895.29391214 3625.25023716 2946.51887893 3625.26009673 2997.74384642 C3625.26041529 2999.40037089 3625.26041529 2999.40037089 3625.26074028 3001.0903605 C3625.26416898 3018.85472707 3625.26778197 3036.6190936 3625.27141668 3054.38346012 C3625.28173256 3104.82611514 3625.29051062 3155.26876822 3625.28857201 3205.71142447 C3625.28851391 3207.24744826 3625.28851391 3207.24744826 3625.28845462 3208.81450283 C3625.28757796 3231.15795983 3625.28586569 3253.50141668 3625.283335 3275.84487354 C3625.28233828 3284.75678363 3625.28145161 3293.66869373 3625.28059977 3302.58060384 C3625.28050389 3303.5527288 3625.280408 3304.52485376 3625.2803092 3305.52643705 C3625.27732293 3336.33148275 3625.28354389 3367.13651731 3625.29511864 3397.94156072 C3625.30648307 3428.28941638 3625.30870053 3458.63725714 3625.29771313 3488.98511342 C3625.29620713 3493.14853017 3625.2948058 3497.31194695 3625.29346731 3501.47536375 C3625.29320127 3502.29038432 3625.29293522 3503.10540488 3625.29266111 3503.94512303 C3625.2887511 3516.75689169 3625.29480585 3529.5686347 3625.30520717 3542.38039891 C3625.31519669 3554.93885845 3625.31440864 3567.4972797 3625.30235622 3580.05573781 C3625.29623642 3586.73175665 3625.29496463 3593.40767253 3625.30704108 3600.08369108 C3625.3513359 3626.25661378 3625.2852058 3652.13516831 3621.92298335 3678.1276505 C3621.74748039 3679.51445575 3621.74748039 3679.51445575 3621.56843192 3680.92927726 C3620.93717009 3685.85176196 3620.20273191 3690.73645793 3619.36048335 3695.6276505 C3619.23804255 3696.34725957 3619.11560176 3697.06686864 3618.98945063 3697.80828404 C3612.01630993 3738.38022649 3599.87741218 3777.62836845 3582.92298335 3815.1276505 C3582.513706 3816.04111241 3582.10442866 3816.95457433 3581.68274897 3817.89571691 C3575.26630924 3832.12089146 3567.78912471 3845.6593276 3559.92298335 3859.1276505 C3559.40945307 3860.0140421 3558.8959228 3860.9004337 3558.366831 3861.81368566 C3551.46744809 3873.69731238 3544.06195393 3885.05690019 3535.92298335 3896.1276505 C3535.51982905 3896.67856359 3535.11667475 3897.22947667 3534.70130366 3897.79708409 C3532.15041125 3901.27330022 3529.54899491 3904.70793942 3526.92298335 3908.1276505 C3526.51257807 3908.66422276 3526.1021728 3909.20079503 3525.679331 3909.75362706 C3511.55545876 3928.17145371 3495.91463157 3945.19024579 3479.54798335 3961.6276505 C3478.81104243 3962.36926427 3478.07410151 3963.11087804 3477.31482905 3963.87496495 C3472.679282 3968.49692262 3467.89150623 3972.86780813 3462.92298335 3977.1276505 C3461.84007904 3978.07717656 3460.75800195 3979.02764715 3459.6768896 3979.979213 C3450.73363831 3987.78021019 3441.442835 3995.04555336 3431.92298335 4002.1276505 C3431.19562983 4002.67066808 3430.46827632 4003.21368566 3429.71888179 4003.77315831 C3363.83618334 4052.77032202 3285.36865192 4083.20012206 3204.04798335 4093.3776505 C3203.38343135 4093.46082524 3202.71887934 4093.54399999 3202.0341894 4093.62969518 C3197.66778884 4094.1696257 3193.30157134 4094.69737489 3188.92298335 4095.1276505 C3188.11225529 4095.21129174 3187.30152723 4095.29493298 3186.46623166 4095.3811088 C3175.60000886 4096.36475851 3164.74756296 4096.26708087 3153.8459667 4096.255301 C3151.59068977 4096.25654492 3149.33541306 4096.25822635 3147.08013675 4096.26030336 C3140.86821175 4096.26475192 3134.65630168 4096.26297557 3128.44437628 4096.26020158 C3122.36703689 4096.25847781 3116.28970137 4096.26148598 3110.21236271 4096.26433976 C3097.58212352 4096.27010108 3084.95188789 4096.27111451 3072.32164767 4096.26957002 C3059.45300871 4096.26801545 3046.58437259 4096.26865114 3033.71573392 4096.27191123 C3032.49167095 4096.27221918 3032.49167095 4096.27221918 3031.24287942 4096.27253335 C3027.0762332 4096.27359088 3022.90958699 4096.27468236 3018.74294078 4096.2757848 C2988.30688853 4096.28375913 2957.87083732 4096.28675506 2927.43478411 4096.28723073 C2896.58070778 4096.2877252 2865.72663276 4096.29037005 2834.87255687 4096.29563832 C2832.90575031 4096.29597186 2830.93894376 4096.29630533 2828.9721372 4096.29663873 C2821.04200291 4096.29798684 2813.11186863 4096.29935014 2805.18173435 4096.30073083 C2717.94658459 4096.31589761 2630.71143516 4096.32267372 2543.47628429 4096.3271528 C2542.37284055 4096.32720949 2541.26939681 4096.32726618 2540.13251538 4096.32732458 C2534.55103733 4096.32761111 2528.96955928 4096.32789614 2523.38808123 4096.3281787 C2476.62294344 4096.33055394 2429.85780578 4096.33426365 2383.0926681 4096.3382158 C2360.69608739 4096.34010839 2338.29950668 4096.34193689 2315.90292597 4096.34375 C2314.78903788 4096.34384019 2313.6751498 4096.34393038 2312.52750753 4096.3440233 C2258.91719779 4096.34835955 2205.30688801 4096.35228788 2151.6965782 4096.35575032 C2150.55297272 4096.35582419 2149.40936723 4096.35589807 2148.23110704 4096.35597418 C2075.3491599 4096.36066919 2002.4672128 4096.36349218 1929.58526553 4096.3651371 C1923.60984374 4096.36527268 1917.63442196 4096.36541171 1911.65900017 4096.36555064 C1902.07896373 4096.36577312 1892.4989273 4096.36599449 1882.91889086 4096.36621452 C1881.7317624 4096.36624179 1880.54463394 4096.36626906 1879.32153189 4096.36629716 C1876.92225093 4096.36635227 1874.52296996 4096.36640738 1872.123689 4096.36646249 C1855.29344584 4096.36684911 1838.46320268 4096.36723705 1821.63295952 4096.36763162 C1815.61075493 4096.36777273 1809.58855033 4096.3679128 1803.56634574 4096.36805052 C1689.8343127 4096.37065456 1576.10228102 4096.37598345 1462.37024897 4096.39193273 C1461.17308282 4096.39210052 1459.97591667 4096.39226831 1458.74247276 4096.39244119 C1421.33788055 4096.39769187 1383.93328839 4096.40326623 1346.52869624 4096.4089005 C1308.14871267 4096.41468153 1269.7687291 4096.42041211 1231.38874549 4096.42585683 C1230.20698662 4096.42602464 1229.02522775 4096.42619244 1227.807658 4096.42636534 C1153.7879248 4096.43685957 1079.76819198 4096.44372042 1005.74845809 4096.44672322 C1004.60510274 4096.44677003 1003.46174739 4096.44681685 1002.28374491 4096.44686508 C952.06836064 4096.4489158 901.85297639 4096.45015983 851.63759208 4096.45051113 C831.43524859 4096.4506544 811.2329051 4096.45089306 791.03056161 4096.45117519 C787.68093776 4096.45122072 784.33131391 4096.45126237 780.98169006 4096.4513033 C729.75672171 4096.45194926 678.53175492 4096.45490431 627.30678743 4096.46476388 C626.20243778 4096.46497625 625.09808813 4096.46518862 623.96027335 4096.46540743 C606.19590678 4096.46883613 588.43154025 4096.47244912 570.66717372 4096.47608383 C520.22451871 4096.48639971 469.78186562 4096.49517777 419.33920938 4096.49323916 C418.31519352 4096.49320043 417.29117766 4096.49316169 416.23613102 4096.49312177 C393.89267402 4096.49224511 371.54921717 4096.49053284 349.20576031 4096.48800215 C340.29385022 4096.48700543 331.38194012 4096.48611876 322.47003001 4096.48526692 C321.49790505 4096.48517104 320.52578009 4096.48507515 319.52419679 4096.48497636 C288.7191511 4096.48199008 257.91411654 4096.48821104 227.10907312 4096.49978579 C196.76121746 4096.51115022 166.41337671 4096.51336768 136.06552042 4096.50238028 C131.90210368 4096.50087429 127.7386869 4096.49947295 123.57527009 4096.49813446 C122.35273925 4096.4977354 122.35273925 4096.4977354 121.10551081 4096.49732827 C108.29374216 4096.49341825 95.48199914 4096.499473 82.67023494 4096.50987432 C70.1117754 4096.51986384 57.55335415 4096.51907579 44.99489604 4096.50702337 C38.3188772 4096.50090357 31.64296132 4096.49963178 24.96694277 4096.51170823 C-1.20597994 4096.55600305 -27.08453446 4096.48987295 -53.07701665 4093.1276505 C-54.4638219 4092.95214754 -54.4638219 4092.95214754 -55.87864341 4092.77309907 C-60.80112811 4092.14183724 -65.68582408 4091.40739906 -70.57701665 4090.5651505 C-71.65643026 4090.38148931 -71.65643026 4090.38148931 -72.7576502 4090.19411778 C-113.32959264 4083.22097708 -152.5777346 4071.08207933 -190.07701665 4054.1276505 C-191.44720952 4053.51373448 -191.44720952 4053.51373448 -192.84508306 4052.88741612 C-207.07025761 4046.47097639 -220.60869375 4038.99379186 -234.07701665 4031.1276505 C-234.96340825 4030.61412023 -235.84979985 4030.10058995 -236.76305181 4029.57149816 C-248.64667854 4022.67211524 -260.00626634 4015.26662108 -271.07701665 4007.1276505 C-271.90338628 4006.52291905 -271.90338628 4006.52291905 -272.74645025 4005.90597081 C-276.22266638 4003.3550784 -279.65730557 4000.75366206 -283.07701665 3998.1276505 C-283.61358892 3997.71724523 -284.15016118 3997.30683995 -284.70299321 3996.88399816 C-303.12081986 3982.76012591 -320.13961194 3967.11929872 -336.57701665 3950.7526505 C-337.31863042 3950.01570958 -338.06024419 3949.27876866 -338.8243311 3948.5194962 C-343.44628877 3943.88394915 -347.81717428 3939.09617338 -352.07701665 3934.1276505 C-353.02654271 3933.04474619 -353.97701331 3931.9626691 -354.92857915 3930.88155675 C-362.72957635 3921.93830546 -369.99491951 3912.64750215 -377.07701665 3903.1276505 C-377.89154302 3902.03662023 -377.89154302 3902.03662023 -378.72252446 3900.92354894 C-427.71968818 3835.04085049 -458.14948822 3756.57331907 -468.32701665 3675.2526505 C-468.4101914 3674.5880985 -468.49336614 3673.9235465 -468.57906133 3673.23885655 C-469.11899185 3668.87245599 -469.64674105 3664.50623849 -470.07701665 3660.1276505 C-470.20247851 3658.91155841 -470.20247851 3658.91155841 -470.33047495 3657.67089881 C-471.31412466 3646.80467601 -471.21644702 3635.95223011 -471.20466715 3625.05063385 C-471.20591107 3622.79535692 -471.2075925 3620.54008021 -471.20966951 3618.2848039 C-471.21411807 3612.0728789 -471.21234172 3605.86096883 -471.20956773 3599.64904343 C-471.20784396 3593.57170405 -471.21085213 3587.49436852 -471.21370591 3581.41702986 C-471.21946723 3568.78679067 -471.22048067 3556.15655505 -471.21893618 3543.52631482 C-471.2173816 3530.65767587 -471.21801729 3517.78903974 -471.22127739 3504.92040107 C-471.22148268 3504.10435909 -471.22168798 3503.2883171 -471.2218995 3502.44754657 C-471.22295703 3498.28090035 -471.22404852 3494.11425414 -471.22515095 3489.94760793 C-471.23312528 3459.51155568 -471.23612121 3429.07550447 -471.23659688 3398.63945127 C-471.23709136 3367.78537494 -471.2397362 3336.93129991 -471.24500448 3306.07722402 C-471.24533802 3304.11041746 -471.24567148 3302.14361091 -471.24600488 3300.17680435 C-471.24735299 3292.24667006 -471.24871629 3284.31653578 -471.25009699 3276.3864015 C-471.26526376 3189.15125174 -471.27203987 3101.91610231 -471.27651895 3014.68095144 C-471.27657564 3013.5775077 -471.27663233 3012.47406396 -471.27669074 3011.33718253 C-471.27697726 3005.75570448 -471.27726229 3000.17422643 -471.27754485 2994.59274838 C-471.2799201 2947.82761059 -471.2836298 2901.06247293 -471.28758195 2854.29733525 C-471.28947454 2831.90075454 -471.29130305 2809.50417383 -471.29311615 2787.10759312 C-471.29325144 2785.43676099 -471.29325144 2785.43676099 -471.29338945 2783.73217468 C-471.29772571 2730.12186494 -471.30165403 2676.51155517 -471.30511647 2622.90124536 C-471.30519035 2621.75763987 -471.30526422 2620.61403439 -471.30534033 2619.43577419 C-471.31003534 2546.55382705 -471.31285833 2473.67187995 -471.31450325 2400.78993268 C-471.31463883 2394.81451089 -471.31477786 2388.83908911 -471.3149168 2382.86366732 C-471.31513927 2373.28363088 -471.31536064 2363.70359445 -471.31558067 2354.12355801 C-471.31560795 2352.93642955 -471.31563522 2351.74930109 -471.31566331 2350.52619904 C-471.31571843 2348.12691808 -471.31577354 2345.72763712 -471.31582864 2343.32835615 C-471.31621526 2326.49811299 -471.3166032 2309.66786983 -471.31699778 2292.83762667 C-471.31713888 2286.81542208 -471.31727896 2280.79321748 -471.31741667 2274.77101289 C-471.32002071 2161.03897985 -471.3253496 2047.30694817 -471.34129888 1933.57491612 C-471.34146667 1932.37774997 -471.34163446 1931.18058382 -471.34180734 1929.94713991 C-471.34705802 1892.5425477 -471.35263238 1855.13795554 -471.35826665 1817.73336339 C-471.36404768 1779.35337982 -471.36977826 1740.97339625 -471.37522298 1702.59341264 C-471.37547469 1700.82077433 -471.37547469 1700.82077433 -471.37573149 1699.01232515 C-471.38622572 1624.99259195 -471.39308657 1550.97285913 -471.39608938 1476.95312524 C-471.39613619 1475.80976989 -471.396183 1474.66641454 -471.39623123 1473.48841206 C-471.39828196 1423.27302779 -471.39952598 1373.05764354 -471.39987729 1322.84225923 C-471.40002055 1302.63991574 -471.40025921 1282.43757225 -471.40054134 1262.23522877 C-471.40058687 1258.88560491 -471.40062853 1255.53598106 -471.40066945 1252.18635721 C-471.40131542 1200.96138886 -471.40427047 1149.73642207 -471.41413003 1098.51145458 C-471.4143424 1097.40710493 -471.41455477 1096.30275529 -471.41477358 1095.1649405 C-471.41820228 1077.40057393 -471.42181527 1059.6362074 -471.42544998 1041.87184087 C-471.43576586 991.42918586 -471.44454393 940.98653277 -471.44260532 890.54387653 C-471.44256658 889.51986067 -471.44252784 888.49584481 -471.44248793 887.44079817 C-471.44161126 865.09734117 -471.43989899 842.75388432 -471.4373683 820.41042746 C-471.43637158 811.49851737 -471.43548492 802.58660727 -471.43463308 793.67469716 C-471.43453719 792.7025722 -471.4344413 791.73044724 -471.43434251 790.72886395 C-471.43135623 759.92381825 -471.43757719 729.11878369 -471.44915194 698.31374027 C-471.46051638 667.96588462 -471.46273383 637.61804386 -471.45174644 607.27018757 C-471.45024044 603.10677083 -471.4488391 598.94335405 -471.44750062 594.77993724 C-471.44723457 593.96491668 -471.44696853 593.14989612 -471.44669442 592.31017797 C-471.4427844 579.49840931 -471.44883915 566.68666629 -471.45924047 553.87490209 C-471.46922999 541.31644255 -471.46844195 528.7580213 -471.45638952 516.19956319 C-471.45026972 509.52354435 -471.44899793 502.84762847 -471.46107438 496.17160992 C-471.5053692 469.99868722 -471.4392391 444.12013269 -468.07701665 418.1276505 C-467.96001468 417.20311367 -467.84301271 416.27857684 -467.72246523 415.32602374 C-467.09120339 410.40353904 -466.35676521 405.51884307 -465.51451665 400.6276505 C-465.33085546 399.54823689 -465.33085546 399.54823689 -465.14348394 398.44701695 C-458.17034324 357.87507451 -446.03144548 318.62693255 -429.07701665 281.1276505 C-428.66773931 280.21418859 -428.25846196 279.30072667 -427.83678228 278.35958409 C-421.42034255 264.13440954 -413.94315801 250.5959734 -406.07701665 237.1276505 C-405.56348638 236.2412589 -405.0499561 235.3548673 -404.52086431 234.44161534 C-397.62148139 222.55798861 -390.21598723 211.19840081 -382.07701665 200.1276505 C-381.67386235 199.57673741 -381.27070806 199.02582433 -380.85533696 198.45821691 C-378.30444455 194.98200077 -375.70302821 191.54736158 -373.07701665 188.1276505 C-372.66661138 187.59107823 -372.2562061 187.05450597 -371.83336431 186.50167394 C-357.70949206 168.08384729 -342.06866488 151.06505521 -325.70201665 134.6276505 C-324.96507573 133.88603673 -324.22813482 133.14442296 -323.46886235 132.38033605 C-318.83331531 127.75837838 -314.04553953 123.38749287 -309.07701665 119.1276505 C-307.99411235 118.17812444 -306.91203526 117.22765385 -305.8309229 116.276088 C-296.88767161 108.4750908 -287.5968683 101.20974764 -278.07701665 94.1276505 C-277.34966314 93.58463292 -276.62230962 93.04161534 -275.87291509 92.48214269 C-209.99021665 43.48497897 -131.52268523 13.05517894 -50.20201665 2.8776505 C-49.53746465 2.79447576 -48.87291265 2.71130101 -48.18822271 2.62560582 C-43.82182214 2.0856753 -39.45560464 1.5579261 -35.07701665 1.1276505 C-34.26628859 1.04400926 -33.45556054 0.96036802 -32.62026496 0.8741922 C-21.75404216 -0.10945751 -10.90159627 -0.01177987 0 0 Z " fill="#0F0F0F" transform="translate(471.0770166516304,-0.12765049934387207)"/>
<path d="M0 0 C3.76741171 3.59387565 5.6967781 7.75596185 8.00390625 12.3828125 C8.51356934 13.38151367 9.02323242 14.38021484 9.54833984 15.40917969 C11.25654712 18.76819274 12.944741 22.13668438 14.62890625 25.5078125 C15.24795459 26.74451234 15.86709697 27.98116512 16.48632812 29.21777344 C21.55000094 39.33583451 21.55000094 39.33583451 24.02490234 44.33544922 C27.29100378 50.91726147 30.64108879 57.44175296 34.08984375 63.9296875 C38.60904821 72.45294362 42.9476139 81.06325303 47.25390625 89.6953125 C47.76069475 90.71104969 47.76069475 90.71104969 48.27772141 91.74730682 C51.08572236 97.37735263 53.8884982 103.00999632 56.69116211 108.6427002 C59.12638889 113.53641312 61.56352335 118.42916858 64.00390625 123.3203125 C64.51259247 124.33996597 64.51259247 124.33996597 65.03155518 125.38021851 C68.8185196 132.96516191 72.64105142 140.52591805 76.62890625 148.0078125 C80.97776421 156.16701027 85.12677311 164.42253945 89.25390625 172.6953125 C89.592547 173.37403412 89.93118774 174.05275574 90.28009033 174.75204468 C93.08730178 180.38051112 95.88928477 186.01157715 98.69116211 191.6427002 C101.12638889 196.53641312 103.56352307 201.42916871 106.00390625 206.3203125 C106.51271709 207.34021523 106.51271709 207.34021523 107.03180695 208.38072205 C110.81349161 215.95508735 114.63045148 223.50538473 118.61328125 230.9765625 C123.01738926 239.23822681 127.21530781 247.59969983 131.39453125 255.9765625 C131.73814194 256.665224 132.08175262 257.3538855 132.43577576 258.06341553 C134.91966789 263.04346377 137.39964765 268.02545628 139.87890625 273.0078125 C142.37692491 278.02769658 144.87637526 283.04685839 147.3792038 288.06434631 C148.36339698 290.03909276 149.34513012 292.01504804 150.32672119 293.99108887 C153.5835523 300.5284665 156.93295803 306.97968635 160.57073975 313.31506348 C161.62890625 315.5078125 161.62890625 315.5078125 161.62890625 318.5078125 C162.98242188 317.83298828 162.98242188 317.83298828 164.36328125 317.14453125 C195.33775787 301.99074061 229.21060944 290.05771743 262.62890625 281.5078125 C263.81033203 281.20423828 264.99175781 280.90066406 266.20898438 280.58789062 C351.55711163 258.79208116 439.08087958 253.84527693 619.62890625 285.5078125 C620.32929016 285.71019531 621.02967407 285.91257812 621.75128174 286.12109375 C650.45565795 294.44908916 678.62011815 304.66702504 705.62890625 317.5078125 C706.03300468 316.20389053 706.03300468 316.20389053 706.44526672 314.87362671 C707.59309848 311.60963598 708.95675988 308.71351556 710.56713867 305.65478516 C711.15852127 304.52366302 711.74990387 303.39254089 712.35920715 302.22714233 C712.67421488 301.62904125 712.9892226 301.03094017 713.31377602 300.41471481 C715.01995492 297.17305865 716.70978346 293.92290238 718.39990234 290.67285156 C718.75071145 289.9987216 719.10152056 289.32459164 719.46296024 288.63003349 C723.15042416 281.52959725 726.73665311 274.37976857 730.3046875 267.21875 C730.61909664 266.58831032 730.93350578 265.95787064 731.25744247 265.30832672 C733.48834951 260.83460634 735.71537912 256.35896257 737.94140625 251.8828125 C740.49737712 246.74348248 743.05501053 241.6049893 745.6171875 236.46875 C745.92702702 235.84755028 746.23686653 235.22635056 746.55609512 234.5863266 C750.14079741 227.40550311 753.77318644 220.25549078 757.546875 213.171875 C761.92152266 204.95720335 766.09950946 196.6477591 770.25390625 188.3203125 C770.59242804 187.6418288 770.93094982 186.96334511 771.27972984 186.2643013 C773.732302 181.34688808 776.18099447 176.42754695 778.62890625 171.5078125 C781.41800805 165.90236532 784.20865744 160.29769736 787.00390625 154.6953125 C787.3430304 154.01554352 787.68215454 153.33577454 788.03155518 152.63540649 C792.1822406 144.32196319 796.40562304 136.05524044 800.77636719 127.85498047 C804.72579302 120.40559098 808.49020511 112.86459185 812.25390625 105.3203125 C812.592547 104.64159088 812.93118774 103.96286926 813.28009033 103.26358032 C815.73254237 98.34640745 818.18111416 93.42730639 820.62890625 88.5078125 C823.41800811 82.9023652 826.20879773 77.29776743 829.00390625 71.6953125 C829.34060019 71.02025854 829.67729412 70.34520458 830.0241909 69.64969444 C834.33758331 61.00802987 838.73150444 52.41628511 843.27363586 43.89216614 C845.98475626 38.78741015 848.56074297 33.62860448 851.078125 28.42578125 C851.60854904 27.33537033 851.60854904 27.33537033 852.14968872 26.22293091 C853.57104698 23.30048794 854.99181212 20.37818157 856.38696289 17.44311523 C864.66264328 0.07568303 864.66264328 0.07568303 874.62890625 -4.4921875 C881.506834 -5.51377953 887.8670936 -4.46168057 893.62890625 -0.4921875 C898.69814505 4.80069418 901.0315486 9.59389882 900.90015984 16.93846703 C900.6193816 19.59803108 899.99523549 21.38787501 898.86306763 23.79702759 C898.49864689 24.5788805 898.13422615 25.36073341 897.75876236 26.16627884 C897.19948359 27.325338 897.19948359 27.325338 896.62890625 28.5078125 C896.30081844 29.18989147 895.97273064 29.87197044 895.63470078 30.57471848 C894.62623811 32.64174316 893.60073552 34.69945528 892.56982422 36.75537109 C892.18540665 37.52595856 891.80098907 38.29654602 891.40492249 39.09048462 C890.1456426 41.61340932 888.88347506 44.13487589 887.62109375 46.65625 C886.73142041 48.43627196 885.84186573 50.21635323 884.9524231 51.99649048 C883.08937323 55.72406056 881.22488756 59.45090793 879.359375 63.17724609 C876.99690399 67.89653457 874.63798361 72.61758687 872.28017998 77.3392086 C870.44206328 81.01910275 868.60199557 84.69801879 866.76138687 88.37666702 C865.89265761 90.11346914 865.02449849 91.85055659 864.15697861 93.5879631 C859.28588104 103.3405178 854.32424734 113.03565106 849.22514153 122.67104149 C845.70611945 129.33096427 842.30136312 136.04240472 838.95098877 142.78848267 C837.95818641 144.78736356 836.96252979 146.7848034 835.96630859 148.78198242 C833.85151076 153.02276702 831.73992864 157.26514753 829.62890625 161.5078125 C826.83980445 167.11325968 824.04915506 172.71792764 821.25390625 178.3203125 C820.9147821 179.00008148 820.57565796 179.67985046 820.22625732 180.38021851 C816.0755719 188.69366181 811.85218946 196.96038456 807.48144531 205.16064453 C803.53201948 212.61003402 799.76760739 220.15103315 796.00390625 227.6953125 C795.6652655 228.37403412 795.32662476 229.05275574 794.97772217 229.75204468 C792.52527013 234.66921755 790.07669834 239.58831861 787.62890625 244.5078125 C771.62587959 276.67018131 771.62587959 276.67018131 763.93505859 291.14453125 C760.09370137 298.38375085 756.3882013 305.69260171 752.7019043 313.01171875 C751.84604152 314.70653591 750.98586213 316.39917875 750.12182617 318.08984375 C748.85029363 320.57862027 747.59170962 323.07355452 746.3359375 325.5703125 C745.94654495 326.32642822 745.5571524 327.08254395 745.15596008 327.86157227 C742.9020472 332.01374352 742.9020472 332.01374352 743.62890625 336.5078125 C745.50520307 337.845044 745.50520307 337.845044 747.87109375 339.00390625 C749.20865723 339.70870117 749.20865723 339.70870117 750.57324219 340.42773438 C751.54036133 340.92853516 752.50748047 341.42933594 753.50390625 341.9453125 C764.22609838 347.64571844 774.47444992 353.85758806 784.62890625 360.5078125 C785.38123535 360.99749512 786.13356445 361.48717773 786.90869141 361.99169922 C815.90106758 380.89814449 843.07542195 402.16949092 868.62890625 425.5078125 C869.56476563 426.35085938 870.500625 427.19390625 871.46484375 428.0625 C878.32550397 434.27966395 884.94684753 440.72164218 891.50390625 447.2578125 C892.30046631 448.04978027 893.09702637 448.84174805 893.91772461 449.65771484 C898.13511523 453.8861608 902.19200286 458.19434845 906.08740234 462.72119141 C908.17239431 465.13772154 910.33828701 467.47604791 912.50390625 469.8203125 C917.42467927 475.2227877 922.05591115 480.81018831 926.62890625 486.5078125 C927.55280074 487.63980036 928.47730915 488.77128737 929.40234375 489.90234375 C937.20800177 499.49244859 944.50409349 509.40385888 951.62890625 519.5078125 C952.34626953 520.52294922 952.34626953 520.52294922 953.078125 521.55859375 C970.30310011 546.02095336 985.13262032 571.82466325 998.62890625 598.5078125 C999.08620117 599.40628906 999.54349609 600.30476563 1000.01464844 601.23046875 C1016.14324333 633.13930876 1028.50184237 667.33671792 1037.01757812 702.02880859 C1037.56565833 704.25133512 1038.13093125 706.46819796 1038.70703125 708.68359375 C1042.62740861 723.91394866 1046.43506559 739.31056695 1048.171875 754.9609375 C1048.54810941 757.88077376 1049.03211882 760.71991595 1049.58203125 763.609375 C1054.33542722 789.2807673 1054.62890625 815.49653872 1054.62890625 841.5078125 C645.42890625 841.5078125 236.22890625 841.5078125 -185.37109375 841.5078125 C-185.37109375 800.34551121 -180.97826295 760.70145819 -172.37109375 720.5078125 C-172.12101562 719.33750488 -171.8709375 718.16719727 -171.61328125 716.96142578 C-153.54858149 634.0697643 -113.15825471 556.45665252 -60.37109375 490.5078125 C-59.59894531 489.53972656 -58.82679687 488.57164062 -58.03125 487.57421875 C-53.44358062 481.89002383 -48.65403774 476.43974001 -43.7109375 471.0625 C-41.71274527 468.88083435 -39.74960486 466.67769941 -37.80859375 464.4453125 C-30.41292336 455.95207175 -22.79026299 447.76730396 -14.80859375 439.8203125 C-13.91462891 438.92248047 -13.02066406 438.02464844 -12.09960938 437.09960938 C-7.01788436 432.02531922 -1.8226757 427.17959842 3.62890625 422.5078125 C5.23658998 421.05335733 6.8413034 419.59560355 8.44140625 418.1328125 C12.78805935 414.21087055 17.25944038 410.47995738 21.8125 406.80078125 C24.59816717 404.53283863 27.33071978 402.21064698 30.06640625 399.8828125 C59.48848905 375.37701603 91.92138413 354.56383187 125.62890625 336.5078125 C119.88980003 324.2699234 114.01141976 312.11201321 107.9543457 300.02832031 C106.69247739 297.50995023 105.43491441 294.98946317 104.17773438 292.46875 C100.20384725 284.51807687 96.17296056 276.60589313 92 268.7578125 C87.53527221 260.34475727 83.25557178 251.84229648 79.00390625 243.3203125 C78.49675237 242.30386154 78.49675237 242.30386154 77.97935295 241.26687622 C75.17159759 235.63731132 72.36907376 230.00514525 69.56665039 224.3729248 C67.13142361 219.47921188 64.69428915 214.58645642 62.25390625 209.6953125 C61.74522003 208.67565903 61.74522003 208.67565903 61.22625732 207.63540649 C57.4392929 200.05046309 53.61676108 192.48970695 49.62890625 185.0078125 C45.28004829 176.84861473 41.13103939 168.59308555 37.00390625 160.3203125 C36.6652655 159.64159088 36.32662476 158.96286926 35.97772217 158.26358032 C33.17051072 152.63511388 30.36852773 147.00404785 27.56665039 141.3729248 C25.13142361 136.47921189 22.69430587 131.58644808 20.25390625 126.6953125 C19.74503309 125.67531631 19.74503309 125.67531631 19.22587967 124.63471413 C15.08365639 116.33852763 10.87008645 108.08826665 6.50863647 99.90483093 C-0.12274515 87.3969912 -6.34358219 74.67108027 -12.65856934 62.00152588 C-14.48182745 58.34467466 -16.30742036 54.68898944 -18.1328125 51.03320312 C-20.18770695 46.91734902 -22.24235222 42.8013715 -24.29550171 38.68464661 C-24.60490031 38.06434696 -24.91429892 37.44404732 -25.23307323 36.80495071 C-26.10337817 35.05931385 -26.97269214 33.31318303 -27.84196472 31.56703186 C-28.7804777 29.68941589 -29.72459829 27.8145745 -30.67817688 25.94456482 C-33.33319995 20.73419556 -34.23298251 17.27104459 -33.37109375 11.5078125 C-31.44649805 5.73402541 -28.90400699 1.28085177 -23.87109375 -2.2421875 C-15.46744662 -6.44401107 -7.74864413 -4.87641196 0 0 Z " fill="#3CDB83" transform="translate(2101.37109375,1388.4921875)"/>
<path d="M0 0 C3.40722873 1.9885705 6.09200061 3.88631643 8.8125 6.75 C11.99951913 10.09331217 15.38938215 13.10748058 18.87475586 16.13085938 C22.28531499 19.13042752 25.57598748 22.25389721 28.875 25.375 C33.98775667 30.19139906 39.13708222 34.95281028 44.37890625 39.62890625 C47.78917614 42.7139045 51.14388483 45.85631294 54.5 49 C58.63361255 52.87171308 62.77600046 56.72656041 67 60.5 C71.8957906 64.87357293 76.68162005 69.36021046 81.47265625 73.84765625 C84.95089033 77.1010348 88.44800473 80.32688423 92 83.5 C96.8957906 87.87357293 101.68162005 92.36021046 106.47265625 96.84765625 C109.95089033 100.1010348 113.44800473 103.32688423 117 106.5 C121.8957906 110.87357293 126.68162005 115.36021046 131.47265625 119.84765625 C134.95089033 123.1010348 138.44800473 126.32688423 142 129.5 C146.8957906 133.87357293 151.68162005 138.36021046 156.47265625 142.84765625 C159.95089033 146.1010348 163.44800473 149.32688423 167 152.5 C171.8957906 156.87357293 176.68162005 161.36021046 181.47265625 165.84765625 C184.95089033 169.1010348 188.44800473 172.32688423 192 175.5 C196.8957906 179.87357293 201.68162005 184.36021046 206.47265625 188.84765625 C209.95089033 192.1010348 213.44800473 195.32688423 217 198.5 C221.8957906 202.87357293 226.68162005 207.36021046 231.47265625 211.84765625 C234.95089033 215.1010348 238.44800473 218.32688423 242 221.5 C246.8957906 225.87357293 251.68162005 230.36021046 256.47265625 234.84765625 C259.95089033 238.1010348 263.44800473 241.32688423 267 244.5 C271.8957906 248.87357293 276.68162005 253.36021046 281.47265625 257.84765625 C284.95089033 261.1010348 288.44800473 264.32688423 292 267.5 C296.8957906 271.87357293 301.68162005 276.36021046 306.47265625 280.84765625 C309.95089033 284.1010348 313.44800473 287.32688423 317 290.5 C321.8957906 294.87357293 326.68162005 299.36021046 331.47265625 303.84765625 C334.95089033 307.1010348 338.44800473 310.32688423 342 313.5 C346.8957906 317.87357293 351.68162005 322.36021046 356.47265625 326.84765625 C359.95089033 330.1010348 363.44800473 333.32688423 367 336.5 C371.8957906 340.87357293 376.68162005 345.36021046 381.47265625 349.84765625 C384.95089033 353.1010348 388.44800473 356.32688423 392 359.5 C396.8957906 363.87357293 401.68162005 368.36021046 406.47265625 372.84765625 C409.95089033 376.1010348 413.44800473 379.32688423 417 382.5 C421.8957906 386.87357293 426.68162005 391.36021046 431.47265625 395.84765625 C434.95089033 399.1010348 438.44800473 402.32688423 442 405.5 C446.8957906 409.87357293 451.68162005 414.36021046 456.47265625 418.84765625 C459.95089033 422.1010348 463.44800473 425.32688423 467 428.5 C471.8957906 432.87357293 476.68162005 437.36021046 481.47265625 441.84765625 C484.95089033 445.1010348 488.44800473 448.32688423 492 451.5 C496.8957906 455.87357293 501.68162005 460.36021046 506.47265625 464.84765625 C509.95089033 468.1010348 513.44800473 471.32688423 517 474.5 C521.8957906 478.87357293 526.68162005 483.36021046 531.47265625 487.84765625 C534.95089033 491.1010348 538.44800473 494.32688423 542 497.5 C546.8957906 501.87357293 551.68162005 506.36021046 556.47265625 510.84765625 C559.95089033 514.1010348 563.44800473 517.32688423 567 520.5 C571.8957906 524.87357293 576.68162005 529.36021046 581.47265625 533.84765625 C584.95089033 537.1010348 588.44800473 540.32688423 592 543.5 C596.88723336 547.86592846 601.66694181 552.3424976 606.44628906 556.82568359 C610.91264256 561.00818767 615.43966277 565.10541949 620.046875 569.1328125 C621.95911179 570.96091087 623.48221739 572.83860072 625 575 C620.57291843 579.53304895 616.06894277 583.88754332 611.265625 588.01953125 C608.46683737 590.46605768 605.73310183 592.98076721 603 595.5 C599.09039134 599.10035014 595.14132993 602.64418073 591.125 606.125 C588.38176582 608.54550075 585.69115432 611.02200642 583 613.5 C579.09018405 617.10012756 575.14133532 620.64417605 571.125 624.125 C568.38176582 626.54550075 565.69115432 629.02200642 563 631.5 C559.69971077 634.53888018 556.39050717 637.56156045 553 640.5 C549.12182987 643.86322638 545.34472189 647.33335671 541.56689453 650.80810547 C536.74415109 655.24223628 531.8765888 659.6251824 527 664 C525.33307353 665.49971128 523.66640851 666.99971321 522 668.5 C487 700 487 700 452 731.5 C450.75863281 732.61761719 450.75863281 732.61761719 449.4921875 733.7578125 C447.85260121 735.23292618 446.21200345 736.70691652 444.5703125 738.1796875 C439.9796939 742.30097768 435.41552893 746.44873788 430.875 750.625 C427.00632178 754.18253099 423.09665875 757.68289575 419.125 761.125 C416.38176582 763.54550075 413.69115432 766.02200642 411 768.5 C407.09018405 772.10012756 403.14133532 775.64417605 399.125 779.125 C396.38176582 781.54550075 393.69115432 784.02200642 391 786.5 C387.09018405 790.10012756 383.14133532 793.64417605 379.125 797.125 C376.38176582 799.54550075 373.69115432 802.02200642 371 804.5 C367.09018405 808.10012756 363.14133532 811.64417605 359.125 815.125 C355.84491419 818.01919336 352.63731943 820.99218892 349.41967773 823.95532227 C346.66526572 826.48740116 343.89257501 828.99035268 341.0625 831.4375 C337.47041409 834.54964124 333.98448008 837.76872086 330.5 841 C326.41698978 844.78631688 322.30230283 848.51767049 318.08984375 852.16015625 C315.35629441 854.56670156 312.67885994 857.03303196 310 859.5 C306.09020819 863.10015323 302.14133464 866.64417664 298.125 870.125 C295.38176582 872.54550075 292.69115432 875.02200642 290 877.5 C286.09018405 881.10012756 282.14133532 884.64417605 278.125 888.125 C275.38176582 890.54550075 272.69115432 893.02200642 270 895.5 C266.09018405 899.10012756 262.14133532 902.64417605 258.125 906.125 C254.84491419 909.01919336 251.63731943 911.99218892 248.41967773 914.95532227 C245.66526572 917.48740116 242.89257501 919.99035268 240.0625 922.4375 C236.47041409 925.54964124 232.98448008 928.76872086 229.5 932 C225.41698978 935.78631688 221.30230283 939.51767049 217.08984375 943.16015625 C214.35629441 945.56670156 211.67885994 948.03303196 209 950.5 C205.09020819 954.10015323 201.14133464 957.64417664 197.125 961.125 C194.38176582 963.54550075 191.69115432 966.02200642 189 968.5 C185.09018405 972.10012756 181.14133532 975.64417605 177.125 979.125 C174.38176582 981.54550075 171.69115432 984.02200642 169 986.5 C165.09018405 990.10012756 161.14133532 993.64417605 157.125 997.125 C153.84491419 1000.01919336 150.63731943 1002.99218892 147.41967773 1005.95532227 C144.66526572 1008.48740116 141.89257501 1010.99035268 139.0625 1013.4375 C135.47041409 1016.54964124 131.98448008 1019.76872086 128.5 1023 C124.41698978 1026.78631688 120.30230283 1030.51767049 116.08984375 1034.16015625 C113.35629441 1036.56670156 110.67885994 1039.03303196 108 1041.5 C104.09020819 1045.10015323 100.14133464 1048.64417664 96.125 1052.125 C93.38176582 1054.54550075 90.69115432 1057.02200642 88 1059.5 C84.09018405 1063.10012756 80.14133532 1066.64417605 76.125 1070.125 C73.38176582 1072.54550075 70.69115432 1075.02200642 68 1077.5 C64.09018405 1081.10012756 60.14133532 1084.64417605 56.125 1088.125 C52.84491419 1091.01919336 49.63731943 1093.99218892 46.41967773 1096.95532227 C43.66526572 1099.48740116 40.89257501 1101.99035268 38.0625 1104.4375 C34.47041409 1107.54964124 30.98448008 1110.76872086 27.5 1114 C23.41896444 1117.78448571 19.30926331 1121.51735664 15.09375 1125.15234375 C12.86998703 1127.11473159 10.69824201 1129.1291976 8.52661133 1131.14892578 C3.8949931 1135.45108645 -0.7093693 1139.5129934 -6 1143 C-11.20111284 1137.34138186 -16.21157116 1131.59635042 -20.97265625 1125.5625 C-24.58806903 1120.99272971 -28.30403201 1116.50465842 -32 1112 C-33.50028317 1110.16689838 -35.00028408 1108.33356573 -36.5 1106.5 C-37.61375 1105.13875 -37.61375 1105.13875 -38.75 1103.75 C-45.5 1095.5 -45.5 1095.5 -47.7265625 1092.7734375 C-49.29795796 1090.85644304 -50.87656188 1088.94534301 -52.4609375 1087.0390625 C-53.25757813 1086.07742188 -54.05421875 1085.11578125 -54.875 1084.125 C-55.59429688 1083.26132813 -56.31359375 1082.39765625 -57.0546875 1081.5078125 C-58.92515614 1079.09648546 -60.49040664 1076.6489091 -62 1074 C-56.05144477 1068.51741493 -50.10435993 1063.04278517 -43.9921875 1057.7421875 C-41.63979365 1055.68499601 -39.31965034 1053.59403085 -37 1051.5 C-33.38323655 1048.23609152 -29.73610392 1045.01209051 -26.0625 1041.8125 C-23.69035571 1039.72788836 -21.34443935 1037.61571356 -19 1035.5 C-15.38323655 1032.23609152 -11.73610392 1029.01209051 -8.0625 1025.8125 C-5.69035571 1023.72788836 -3.34443935 1021.61571356 -1 1019.5 C2.61676345 1016.23609152 6.26389608 1013.01209051 9.9375 1009.8125 C12.30964429 1007.72788836 14.65556065 1005.61571356 17 1003.5 C20.61676345 1000.23609152 24.26389608 997.01209051 27.9375 993.8125 C30.30964429 991.72788836 32.65556065 989.61571356 35 987.5 C38.61676345 984.23609152 42.26389608 981.01209051 45.9375 977.8125 C48.30964429 975.72788836 50.65556065 973.61571356 53 971.5 C56.61676345 968.23609152 60.26389608 965.01209051 63.9375 961.8125 C66.30964429 959.72788836 68.65556065 957.61571356 71 955.5 C74.61676345 952.23609152 78.26389608 949.01209051 81.9375 945.8125 C84.30964429 943.72788836 86.65556065 941.61571356 89 939.5 C92.61676345 936.23609152 96.26389608 933.01209051 99.9375 929.8125 C102.30964429 927.72788836 104.65556065 925.61571356 107 923.5 C110.61676345 920.23609152 114.26389608 917.01209051 117.9375 913.8125 C120.30964429 911.72788836 122.65556065 909.61571356 125 907.5 C128.61676345 904.23609152 132.26389608 901.01209051 135.9375 897.8125 C138.30964429 895.72788836 140.65556065 893.61571356 143 891.5 C146.61676345 888.23609152 150.26389608 885.01209051 153.9375 881.8125 C156.30964429 879.72788836 158.65556065 877.61571356 161 875.5 C164.61676345 872.23609152 168.26389608 869.01209051 171.9375 865.8125 C174.30964429 863.72788836 176.65556065 861.61571356 179 859.5 C182.61676345 856.23609152 186.26389608 853.01209051 189.9375 849.8125 C192.30964429 847.72788836 194.65556065 845.61571356 197 843.5 C200.61676345 840.23609152 204.26389608 837.01209051 207.9375 833.8125 C210.30964429 831.72788836 212.65556065 829.61571356 215 827.5 C218.61676345 824.23609152 222.26389608 821.01209051 225.9375 817.8125 C228.30964429 815.72788836 230.65556065 813.61571356 233 811.5 C236.61676345 808.23609152 240.26389608 805.01209051 243.9375 801.8125 C246.30964429 799.72788836 248.65556065 797.61571356 251 795.5 C254.61676345 792.23609152 258.26389608 789.01209051 261.9375 785.8125 C264.30964429 783.72788836 266.65556065 781.61571356 269 779.5 C272.61676345 776.23609152 276.26389608 773.01209051 279.9375 769.8125 C282.30964429 767.72788836 284.65556065 765.61571356 287 763.5 C290.61676345 760.23609152 294.26389608 757.01209051 297.9375 753.8125 C300.30964429 751.72788836 302.65556065 749.61571356 305 747.5 C308.61676345 744.23609152 312.26389608 741.01209051 315.9375 737.8125 C318.30964429 735.72788836 320.65556065 733.61571356 323 731.5 C326.61676345 728.23609152 330.26389608 725.01209051 333.9375 721.8125 C336.30964429 719.72788836 338.65556065 717.61571356 341 715.5 C344.61676345 712.23609152 348.26389608 709.01209051 351.9375 705.8125 C354.30964429 703.72788836 356.65556065 701.61571356 359 699.5 C362.61676345 696.23609152 366.26389608 693.01209051 369.9375 689.8125 C372.30964429 687.72788836 374.65556065 685.61571356 377 683.5 C380.61676345 680.23609152 384.26389608 677.01209051 387.9375 673.8125 C390.30964429 671.72788836 392.65556065 669.61571356 395 667.5 C398.61676345 664.23609152 402.26389608 661.01209051 405.9375 657.8125 C408.30964429 655.72788836 410.65556065 653.61571356 413 651.5 C416.61676345 648.23609152 420.26389608 645.01209051 423.9375 641.8125 C426.30964429 639.72788836 428.65556065 637.61571356 431 635.5 C434.61676345 632.23609152 438.26389608 629.01209051 441.9375 625.8125 C444.30964429 623.72788836 446.65556065 621.61571356 449 619.5 C452.61676345 616.23609152 456.26389608 613.01209051 459.9375 609.8125 C462.30964429 607.72788836 464.65556065 605.61571356 467 603.5 C470.61676345 600.23609152 474.26389608 597.01209051 477.9375 593.8125 C481.16402864 590.97706574 484.345429 588.09194229 487.53125 585.2109375 C490.45039249 582.59664217 493.41812645 580.04281896 496.40625 577.5078125 C498.23369102 575.89126371 498.23369102 575.89126371 500 573 C499.11054687 572.60361328 499.11054687 572.60361328 498.203125 572.19921875 C495.91970946 570.95629575 494.52573277 569.69598354 492.75 567.8125 C490.37176079 565.36401744 487.96200541 563.03928947 485.375 560.8125 C481.7185621 557.65917662 478.16513874 554.40729197 474.625 551.125 C470.77399311 547.55567999 466.911225 544.00354031 463 540.5 C459.13337433 537.03510167 455.30986214 533.52695432 451.5 530 C446.87649899 525.72022376 442.21907612 521.48241345 437.52734375 517.27734375 C434.150766 514.2347706 430.80519519 511.15881256 427.45849609 508.08349609 C424.34348908 505.22383388 421.21139758 502.38476963 418.0625 499.5625 C413.6079009 495.56551622 409.21081521 491.50925591 404.81884766 487.44384766 C400.75388189 483.6852202 396.65015094 479.97250157 392.52734375 476.27734375 C389.150766 473.2347706 385.80519519 470.15881256 382.45849609 467.08349609 C379.34348908 464.22383388 376.21139758 461.38476963 373.0625 458.5625 C368.6079009 454.56551622 364.21081521 450.50925591 359.81884766 446.44384766 C355.75388189 442.6852202 351.65015094 438.97250157 347.52734375 435.27734375 C344.150766 432.2347706 340.80519519 429.15881256 337.45849609 426.08349609 C334.34348908 423.22383388 331.21139758 420.38476963 328.0625 417.5625 C323.6079009 413.56551622 319.21081521 409.50925591 314.81884766 405.44384766 C310.75388189 401.6852202 306.65015094 397.97250157 302.52734375 394.27734375 C299.150766 391.2347706 295.80519519 388.15881256 292.45849609 385.08349609 C289.34348908 382.22383388 286.21139758 379.38476963 283.0625 376.5625 C278.6079009 372.56551622 274.21081521 368.50925591 269.81884766 364.44384766 C265.75388189 360.6852202 261.65015094 356.97250157 257.52734375 353.27734375 C254.150766 350.2347706 250.80519519 347.15881256 247.45849609 344.08349609 C244.34348908 341.22383388 241.21139758 338.38476963 238.0625 335.5625 C233.6079009 331.56551622 229.21081521 327.50925591 224.81884766 323.44384766 C220.75388189 319.6852202 216.65015094 315.97250157 212.52734375 312.27734375 C209.150766 309.2347706 205.80519519 306.15881256 202.45849609 303.08349609 C199.34348908 300.22383388 196.21139758 297.38476963 193.0625 294.5625 C188.6079009 290.56551622 184.21081521 286.50925591 179.81884766 282.44384766 C175.75388189 278.6852202 171.65015094 274.97250157 167.52734375 271.27734375 C164.150766 268.2347706 160.80519519 265.15881256 157.45849609 262.08349609 C154.34348908 259.22383388 151.21139758 256.38476963 148.0625 253.5625 C143.6079009 249.56551622 139.21081521 245.50925591 134.81884766 241.44384766 C130.75388189 237.6852202 126.65015094 233.97250157 122.52734375 230.27734375 C119.150766 227.2347706 115.80519519 224.15881256 112.45849609 221.08349609 C109.34348908 218.22383388 106.21139758 215.38476963 103.0625 212.5625 C98.6079009 208.56551622 94.21081521 204.50925591 89.81884766 200.44384766 C85.75388189 196.6852202 81.65015094 192.97250157 77.52734375 189.27734375 C74.150766 186.2347706 70.80519519 183.15881256 67.45849609 180.08349609 C64.34348908 177.22383388 61.21139758 174.38476963 58.0625 171.5625 C53.6079009 167.56551622 49.21081521 163.50925591 44.81884766 159.44384766 C40.75388189 155.6852202 36.65015094 151.97250157 32.52734375 148.27734375 C29.150766 145.2347706 25.80519519 142.15881256 22.45849609 139.08349609 C19.34348908 136.22383388 16.21139758 133.38476963 13.0625 130.5625 C8.6079009 126.56551622 4.21081521 122.50925591 -0.18115234 118.44384766 C-4.24611811 114.6852202 -8.34984906 110.97250157 -12.47265625 107.27734375 C-15.849234 104.2347706 -19.19480481 101.15881256 -22.54150391 98.08349609 C-25.65651092 95.22383388 -28.78860242 92.38476963 -31.9375 89.5625 C-36.3845928 85.5722514 -40.78205317 81.53068198 -45.15478516 77.45922852 C-47.74864625 75.04975963 -50.35701641 72.67264879 -53.05078125 70.375 C-53.96214844 69.59125 -54.87351562 68.8075 -55.8125 68 C-56.62332031 67.319375 -57.43414063 66.63875 -58.26953125 65.9375 C-60 64 -60 64 -60 60 C-58.22769471 57.85343056 -56.47654073 55.97157476 -54.4921875 54.03808594 C-53.61436615 53.15938843 -53.61436615 53.15938843 -52.71881104 52.26293945 C-50.78020375 50.32712108 -48.82780859 48.40585784 -46.875 46.484375 C-45.52891604 45.14575051 -44.18371193 43.80624072 -42.83935547 42.46588135 C-39.29708344 38.93888856 -35.74296402 35.42407142 -32.1862793 31.91162109 C-28.55968995 28.32593465 -24.94438476 24.72891106 -21.328125 21.1328125 C-14.22977427 14.0773731 -7.11886128 7.03473969 0 0 Z " fill="#FEFEFE" transform="translate(1052,1367)"/>
<path d="M0 0 C409.2 0 818.4 0 1240 0 C1240 26.4 1240 52.8 1240 80 C830.8 80 421.6 80 0 80 C0 53.6 0 27.2 0 0 Z " fill="#FFFFFF" transform="translate(1916,2432)"/>
<path d="M0 0 C10.76685493 6.71266881 17.46497671 15.89934336 21 28 C22.2675873 39.08401918 20.45616444 50.91413512 13.6875 60 C5.50322091 69.38580092 -3.60597811 75.13868992 -16.1953125 76.29296875 C-28.19260226 76.78077064 -38.12414948 73.11961213 -47 65 C-55.2679997 56.84736773 -58.9625696 47.2843036 -59.375 35.75 C-59.13635513 23.62122562 -54.68860486 14.76426781 -46.2734375 6.25390625 C-33.55830201 -5.38711962 -15.46577149 -7.55511826 0 0 Z " fill="#FDFEFE" transform="translate(2811,1904)"/>
<path d="M0 0 C10.76685493 6.71266881 17.46497671 15.89934336 21 28 C22.2675873 39.08401918 20.45616444 50.91413512 13.6875 60 C5.50322091 69.38580092 -3.60597811 75.13868992 -16.1953125 76.29296875 C-28.19260226 76.78077064 -38.12414948 73.11961213 -47 65 C-55.2679997 56.84736773 -58.9625696 47.2843036 -59.375 35.75 C-59.13635513 23.62122562 -54.68860486 14.76426781 -46.2734375 6.25390625 C-33.55830201 -5.38711962 -15.46577149 -7.55511826 0 0 Z " fill="#FDFEFE" transform="translate(2295,1904)"/>
</svg>
